<?xml version="1.0" encoding="utf-8"?>
<!-- Generator: Adobe Illustrator 25.2.1, SVG Export Plug-In . SVG Version: 6.00 Build 0)  -->
<svg version="1.1" id="Layer_1" xmlns="http://www.w3.org/2000/svg" xmlns:xlink="http://www.w3.org/1999/xlink" x="0px" y="0px"
	 viewBox="0 0 137 230" style="enable-background:new 0 0 137 230;" xml:space="preserve">
<style type="text/css">
	.st0{display:none;fill:#F8BD7A;}
	.st1{fill:#2E2E2D;}
	.st2{fill:url(#SVGID_1_);}
	.st3{fill:url(#SVGID_2_);}
	.st4{fill:url(#SVGID_3_);}
</style>
<g>
	<path class="st0" d="M922.9,113.8l-2.3-0.3c0.2,1.2,0.3,2.5,0.5,3.8C921.6,116.1,922.3,114.9,922.9,113.8z"/>
	<path class="st0" d="M53.3,119.3L11.2,226.1L128.7,79.7l-51.8,1.2l43.7-72.5c0-0.1,0-0.1,0.1-0.2c0-0.1,0-0.2,0.1-0.3
		s0-0.1,0.1-0.1c0.1-0.2,0.1-0.4,0.2-0.6c0-0.1,0.1-0.3,0.2-0.4c-0.1-0.2,0-0.4,0.1-0.5s0.2-0.2,0.3-0.2V6c0-0.1,0-0.1,0-0.2
		s0.1-0.3,0.2-0.4V5.3c0-0.1,0.1-0.1,0.1-0.1V5.1c0-0.2,0.1-0.4,0.2-0.6L62.6,5.9l-54,114.7L53.3,119.3z"/>
</g>
<g>
	<polygon class="st1" points="30.6,198.4 -140.4,198.4 -65.1,25.2 105.9,25.2 	"/>
	<linearGradient id="SVGID_1_" gradientUnits="userSpaceOnUse" x1="-22.6507" y1="111.7832" x2="278.6139" y2="111.7832">
		<stop  offset="0" style="stop-color:#FF6A00"/>
		<stop  offset="0.2471" style="stop-color:#FF6700"/>
		<stop  offset="0.4333" style="stop-color:#FF5E00"/>
		<stop  offset="0.5996" style="stop-color:#FF4E00"/>
		<stop  offset="0.7541" style="stop-color:#FF3700"/>
		<stop  offset="0.8993" style="stop-color:#FF1900"/>
		<stop  offset="1" style="stop-color:#FF0000"/>
	</linearGradient>
	<polygon class="st2" points="182.8,222 -22.7,222 73.1,1.6 278.6,1.6 	"/>
	<g>
		<linearGradient id="SVGID_2_" gradientUnits="userSpaceOnUse" x1="51.7031" y1="263.8696" x2="51.7031" y2="62.78">
			<stop  offset="9.460749e-02" style="stop-color:#B6B6B6"/>
			<stop  offset="0.2193" style="stop-color:#D0D0D0"/>
			<stop  offset="0.3621" style="stop-color:#E5E5E5"/>
			<stop  offset="0.5219" style="stop-color:#F4F4F4"/>
			<stop  offset="0.7105" style="stop-color:#FCFCFC"/>
			<stop  offset="1" style="stop-color:#FFFFFF"/>
		</linearGradient>
		<path class="st3" d="M-47.8,122.2C-41.9,97-22.9,79.9-5.2,84c-3.9-0.9-7.6-1.8-9.3-2.2c-17.6-4.1-36.7,13-42.6,38.2
			c-5.9,25.2,3.6,49,21.2,53.1c1.7,0.4,5.4,1.3,9.3,2.2C-44.2,171.1-53.7,147.4-47.8,122.2z M51,123.5L150,60l-24.3-6.1l36.5-35
			l-37.7-4L81.1,60.9l19.5,4.9L51,123.5z M47.4,55.9l3.7,46.9l15.2-71.2l-13.3,8l0.5-31.3L35.4,23.2l1.4,39.2L47.4,55.9z
			 M-26.6,175.3c0,0,0.1,0,0.1,0L-26.6,175.3L-26.6,175.3z M134.7,131.9c-12.1-2.8-25.2,8.9-29.2,26.2c-4,17.3,2.5,33.6,14.6,36.4
			c12.1,2.8,25.2-8.9,29.2-26.2C153.3,151,146.8,134.7,134.7,131.9z M137,165.4c-1.8,7.6-7.5,12.8-12.8,11.5
			c-5.3-1.2-8.2-8.4-6.4-16c1.8-7.6,7.5-12.8,12.8-11.5C135.9,150.6,138.8,157.8,137,165.4z M138,117.5c-3.9-0.9-18.3-4.3-22.3-5.2
			c-16-3.7-33.1,10-40.6,31.3l-45-10.5C33,110.7,23.7,90.8,7.7,87c-1.8-0.4-5.8-1.4-10-2.3c-17.6-4.1-36.7,13-42.6,38.2
			c-5.9,25.2,3.6,49,21.2,53.1c4.2,1,8.2,1.9,10,2.3c14.5,3.4,29.9-7.5,38.2-25.5l-6.9-1.4c-6.9,12.7-18.3,20.2-29.1,17.7
			c-14-3.3-21.6-22.2-16.9-42.3C-23.7,106.6-8.5,93,5.6,96.3c12.4,2.9,19.7,18,18.1,35.3L3,126.7c-3.8-0.9-7.7,1.5-8.6,5.3
			c-0.9,3.8,1.5,7.7,5.3,8.6L72,157.5c-2.8,22.4,6.5,42.3,22.5,46.1c1.7,0.4,5.4,1.3,9.3,2.2c-17.6-4.1-27.1-27.9-21.2-53.1
			c5.9-25.2,25-42.3,42.6-38.2l3,0.7c-17.6-4.1-36.7,13-42.6,38.2c-5.9,25.2,3.6,49,21.2,53.1c4.2,1,8.2,1.9,10,2.3
			c17.6,4.1,36.7-13,42.6-38.2C165.2,145.4,155.7,121.7,138,117.5z M152.8,169.1c-4.7,20.1-19.9,33.7-33.9,30.4
			c-14-3.3-21.6-22.2-16.9-42.3c4.7-20.1,19.9-33.7,33.9-30.4C149.9,130.1,157.5,149,152.8,169.1z"/>
		<linearGradient id="SVGID_3_" gradientUnits="userSpaceOnUse" x1="48.6273" y1="56.7018" x2="48.6273" y2="237.5659">
			<stop  offset="0.4224" style="stop-color:#B6B6B6"/>
			<stop  offset="0.9271" style="stop-color:#FFFFFF"/>
		</linearGradient>
		<path class="st4" d="M-26.6,175.3c0,0,0.1,0,0.1,0L-26.6,175.3L-26.6,175.3z M-47.8,122.2c0.3-1.5,0.8-2.9,1.2-4.4
			c-3.4,0.2-6.7,0.4-10.1,0.6c-0.1,0.5-0.3,1-0.4,1.6c-5.9,25.2,3.6,49,21.2,53.1c1.7,0.4,5.4,1.3,9.3,2.2
			C-44.2,171.1-53.7,147.4-47.8,122.2z M120,194.5c10.7,2.5,22.1-6.3,27.4-20.3c-3.6-2.5-7.2-5-10.9-7.3
			c-2.1,6.8-7.5,11.3-12.5,10.1c-5.3-1.2-8.2-8.4-6.4-16c0.4-1.6,0.9-3.1,1.6-4.4c-3.7-2.1-7.5-4.1-11.4-6c-1,2.4-1.9,4.9-2.5,7.5
			C101.4,175.3,107.9,191.6,120,194.5z M-11.5,169c-14-3.3-21.6-22.2-16.9-42.3c0.8-3.3,1.8-6.3,3.1-9.2c-2.3,0-4.5-0.1-6.8-0.1
			c-3.8,0-7.6,0.1-11.3,0.2c-0.5,1.7-1,3.4-1.5,5.2c-5.9,25.2,3.6,49,21.2,53.1c4.2,1,8.2,1.9,10,2.3c14.5,3.4,29.9-7.5,38.2-25.5
			l-6.9-1.4C10.8,164.1-0.7,171.5-11.5,169z M82.5,152.7c1-4.2,2.4-8.2,4-11.9c-2.9-1.2-5.8-2.3-8.7-3.4c-1,2-1.9,4.1-2.6,6.3
			l-45-10.5c0.4-3.2,0.5-6.3,0.4-9.4c-2.3-0.5-4.6-0.9-7-1.3c0.3,2.9,0.3,6,0,9.2L3,126.7c-3.8-0.9-7.7,1.5-8.6,5.3
			c-0.9,3.8,1.5,7.7,5.3,8.6L72,157.5c-2.8,22.4,6.5,42.3,22.5,46.1c1.7,0.4,5.4,1.3,9.3,2.2C86.1,201.6,76.6,177.8,82.5,152.7z
			 M150.6,176.3c-6.2,16-19.4,26.1-31.7,23.2c-14-3.3-21.6-22.2-16.9-42.3c0.7-2.9,1.6-5.7,2.7-8.4c-5-2.5-10.2-4.8-15.3-7
			c-1.6,3.6-2.9,7.4-3.9,11.5c-5.9,25.2,3.6,49,21.2,53.1c4.2,1,8.2,1.9,10,2.3c15.2,3.6,31.5-8.7,39.5-28.4
			C154.3,179,152.4,177.7,150.6,176.3z"/>
	</g>
</g>
</svg>
